<svg preserveAspectRatio="none" overflow="visible" style="display: block;" width="26" height="12" viewBox="0 0 26 12" fill="none" xmlns="http://www.w3.org/2000/svg">
<g id="Frame">
<path id="Vector" opacity="0.35" d="M18 0.5H4C2.067 0.5 0.5 2.067 0.5 4V8C0.5 9.933 2.067 11.5 4 11.5H18C19.933 11.5 21.5 9.933 21.5 8V4C21.5 2.067 19.933 0.5 18 0.5Z" stroke="#1A1A1A"/>
<path id="Vector_2" d="M18 2H4C2.89543 2 2 2.89543 2 4V8C2 9.10457 2.89543 10 4 10H18C19.1046 10 20 9.10457 20 8V4C20 2.89543 19.1046 2 18 2Z" fill="#1A1A1A"/>
<path id="Vector_3" opacity="0.4" d="M23.5 4V8C23.883 7.8245 24.2075 7.54274 24.435 7.18821C24.6625 6.83367 24.7835 6.42126 24.7835 6C24.7835 5.57874 24.6625 5.16633 24.435 4.81179C24.2075 4.45726 23.883 4.1755 23.5 4Z" fill="#1A1A1A"/>
</g>
</svg>
