<svg preserveAspectRatio="none" overflow="visible" style="display: block;" width="17" height="17" viewBox="0 0 17 17" fill="none" xmlns="http://www.w3.org/2000/svg">
<g id="Frame">
<path id="Vector" d="M12.0417 7.4375H4.95833C4.17593 7.4375 3.54167 8.07176 3.54167 8.85417V12.3958C3.54167 13.1782 4.17593 13.8125 4.95833 13.8125H12.0417C12.8241 13.8125 13.4583 13.1782 13.4583 12.3958V8.85417C13.4583 8.07176 12.8241 7.4375 12.0417 7.4375Z" stroke="#005DAA" stroke-width="1.34583" stroke-linejoin="round"/>
<path id="Vector_2" d="M6.02083 7.4375V5.3125C6.02083 4.65498 6.28203 4.0244 6.74696 3.55946C7.2119 3.09453 7.84248 2.83333 8.5 2.83333C9.15752 2.83333 9.7881 3.09453 10.253 3.55946C10.718 4.0244 10.9792 4.65498 10.9792 5.3125V7.4375" stroke="#005DAA" stroke-width="1.34583" stroke-linejoin="round"/>
</g>
</svg>
